<svg xmlns="http://www.w3.org/2000/svg" viewBox="0 0 2200 1100" preserveAspectRatio="xMidYMid slice">
  <defs>
    <radialGradient id="stone" cx="35%" cy="45%" r="90%">
      <stop offset="0%" stop-color="#d9b98a"/>
      <stop offset="60%" stop-color="#c79e6f"/>
      <stop offset="100%" stop-color="#b38658"/>
    </radialGradient>
    <filter id="noise" x="-20%" y="-20%" width="140%" height="140%">
      <feTurbulence type="fractalNoise" baseFrequency="0.9" numOctaves="3" result="turb"/>
      <feColorMatrix type="matrix" values="0.7 0 0 0 0  0 0.6 0 0 0  0 0 0.5 0 0  0 0 0 0.18 0"/>
    </filter>
    <linearGradient id="carve" x1="0%" y1="0%" x2="100%" y2="0%">
      <stop offset="0%" stop-color="#5f3a21"/>
      <stop offset="60%" stop-color="#3d2515"/>
      <stop offset="100%" stop-color="#5f3a21"/>
    </linearGradient>
    <linearGradient id="carveHighlight" x1="0%" y1="0%" x2="100%" y2="0%">
      <stop offset="0%" stop-color="rgba(255,239,215,0.65)"/>
      <stop offset="60%" stop-color="rgba(255,255,255,0)"/>
      <stop offset="100%" stop-color="rgba(255,239,215,0.55)"/>
    </linearGradient>
  </defs>
  <rect width="2200" height="1100" fill="url(#stone)"/>
  <rect width="2200" height="1100" fill="none" filter="url(#noise)"/>
  <g transform="translate(450 150) scale(1.2)">
    <path d="M400 370 C520 290, 700 260, 920 370 C700 480, 520 450, 400 370" fill="none" stroke="url(#carve)" stroke-width="42" stroke-linecap="round"/>
    <path d="M400 370 C520 290, 700 260, 920 370" fill="none" stroke="url(#carveHighlight)" stroke-width="14" stroke-linecap="round"/>
    <path d="M400 370 C520 450, 700 480, 920 370" fill="none" stroke="url(#carveHighlight)" stroke-width="14" stroke-linecap="round"/>
    <path d="M920 370 L1130 190" stroke="url(#carve)" stroke-width="42" stroke-linecap="round"/>
    <path d="M920 370 L1130 550" stroke="url(#carve)" stroke-width="42" stroke-linecap="round"/>
    <path d="M920 370 L1130 190" stroke="url(#carveHighlight)" stroke-width="12" stroke-linecap="round" opacity="0.6"/>
    <path d="M920 370 L1130 550" stroke="url(#carveHighlight)" stroke-width="12" stroke-linecap="round" opacity="0.6"/>
  </g>
</svg>
